<svg height="64" preserveAspectRatio="none" viewBox="0 0 64 64" width="64" xmlns="http://www.w3.org/2000/svg"><path d="m16.5834999 48.25s-4-7.75-.9169998-9.9623985c1.6669998 3.2123985-.75 7.2963981.9169998 9.9623985" fill="#de9170"/><path d="m3.5834999 38.9325981c1.6665001-1.3387985 10.0830002-2.8729973 12.25-1.7069969 0 0 2.0419998-7.575201 6.8125-10.5635014 0 0-.294899-5.4580002.8628006-10.6406002 0 0-2.2285004-5.6073999-3.0195007-9.3476696.7910004-3.4668 4.7480011-5.0292997 9.6772003-2.2978501 4.6665001 2.5859299 3.3843002 9.4541206 2.9761009 12.7978191.4403992 2.4160004.2080002 6.5937996.2080002 6.5937996s1.777298.4990005 2.8017006 1.0976009c1.9306984-.7754002 10.8466988-1.6797009 13.1806984-.9354992 2.3339996.7440987 4.6815987 4.7421989 3.6328011 8.2012005 2.0341987 2.6259008 1.9511985 6.6503988-.5556031 8.9814001 2.0068016 1.2275009 1.1425018 8.6142998-5.4931984 10.3886986.8330002 1.6719017-.017601 6.672802-6.8008003 6.0058022-2.1161995 1.5-13.3745003 1.3242989-16.7870998-.4629021-2.9125996 2.4629021-17.0786095 4.8897018-19.7455997 2.9277992v-21.0391007z" fill="#f2b375"/><g fill="#bf8258"><path d="m15.6665001 38.2876015c1.0004997 1.5458984.1669998 5.0458984.1669998 9.2123985 0 0-3.25-7-.1669998-9.2123985z"/><path d="m32.3134995 46.9453011 1.4091988-.3594017 4.1972008 10.9327011-6.2528992.8148994-4.2523994-9.581501c-1.9750996.4081993-4.0342007.4505997-5.2623005-.4951973 4.875.1562996 8.0445004-4.6044998 10.1246014-8.8877029 1.2817001-3.7748985 1.8793983-7.4051991.6400986-13.0360985l-2.917-2.9932003s2.0004997-1.8320007-.6665001-6c0 0 4.4165001-5.0819998 2.6665001-9.7499599 0 0 2.8330002 4.4941597.9169998 10.4101601l-.4726982-.0869007c.0497971 1.200201.2045975 4.1025009.5898972 6.7196999 1.257801 1.6347998 8.5049018 11.9717005-.7206993 22.3125018z"/><path d="m36.7285004 26.8057003c.7061004-.6387005 2.2988014-.7227001 3.0214996-.0557003 1.0839996 1 2.8398018 7.0903015.3983994 7.8403015-2.4413987.75-3.419899-7.7846012-3.419899-7.7846012z"/><path d="m39.1796989 36.2568016s1.8203011-1.0195007 2.5703011-.5097008c.75.5097008 1.1338005 7.3514977-.7666016 7.4305992-1.9003982.0791016-6.2909965.7461014-1.8036995-6.9208984z"/><path d="m37.2266006 49.7266006c.9033012-.6884995 3.7929001-3.2714996 3.0331993-5.1621017-.7598-1.8906975-1.6562996-1.3808975-3.0331993-.6884995-1.3769989.6924019-4.2383003 3.3281021-3.4766006 4.4638023.7616997 1.1357995 3.0264015 1.7294999 3.4766006 1.3867989z"/><path d="m39.4238014 54.6421013c3.0156975-.1138 6.7431984-1.0923004 6.7431984-1.0923004-1 5.4599991-8.3330002 2.8666992-8.3330002 2.8666992l-.6581993-.8266983c-.4696999.7856979-1.0243988 1.2851982-1.5634995 1.0458984-3.1152-1.3807983-1.8456993-5.4081993 0-5.9043007 1.8466988-.4950981 2.7782975-.7313995 2.7538987.9854012-.0067978.466301-.1190987 1.0863991-.3008003 1.7294998.2695999.4306984.6934013.8725014 1.3584022 1.1958008z"/><path d="m21.9022999 56.9971008s-9.6533003 5.4105988-17.9022999 2.4267006v-7.0058022c2 3.0625 4.7978497 4.5361023 7.8080997 5.2451019 2.8418007-.849102 5.767601-1.9922028 7.3584003-3.4062996z"/></g><path d="m13.3114996 35.9828987c-.0049 0-.0101995.0004997-.0150995.0004997s-.0093002-.0004997-.0146999-.0004997c-.0004006 0 .0303001 0 .0297994 0z" fill="#72402d"/><path d="m53.8690987 31.9619007c.865303-3.7196999-1.5809975-7.9598999-4.2840996-8.8223-.6679993-.212801-1.7187996-.3164005-3.2128983-.3164005-3.3897018 0-8.2217026.5557003-10.1455002 1.1406994-.6660995-.3360004-1.4716988-.6231003-2.0195999-.8008003.0458984-1.2636986.0995979-4.0819988-.2265015-6.0087986l.0820007-.637701c.4658012-3.5614996 1.3339996-10.1904297-3.4941006-12.86621-1.7919997-.9921897-3.5273989-1.4960897-5.1581992-1.4960897-2.9239006 0-5.1187 1.66113-5.7285995 4.33496l-.0400009.1777296.0386009.17871c.7129002 3.3710999 2.5301991 8.1210995 2.9686985 9.2441006-.9271984 4.3232994-.8851986 8.705101-.8417988 10.1387005-3.8080997 2.6513996-5.8257008 7.8843002-6.5014 9.9370003-.5450001-.1216011-1.2012005-.1816025-2.0093002-.1821022-3.2953997.0034027-8.5683699 1.0645027-10.1089001 2.3027l-.1875.2490994v21.8559036l.2148399.248497c.80371.5909004 2.1259799.8780022 4.2963901.8780022 4.9267697 0 13.0209694-1.6192017 15.912569-3.5152016 2.3614006.9883003 6.6669998 1.346199 9.7988987 1.346199 1.6230011 0 5.4150009-.1005974 7.0898018-.9921989 4.1190987.3256989 6.0391006-1.3540001 6.8945007-2.7368011.7324982-1.1830978.9101982-2.5317001.7373009-3.5687981 3.9433975-1.3902016 5.774498-4.6567993 6.1669998-7.3716011.2128983-1.4657974.0019989-2.7436981-.5547028-3.5741997 2.0752035-2.4926986 2.2315031-6.3521003.3125006-9.1430988zm-7.669899 18.8730984c-3.1631012-.3925972-6.5565987-.9384995-8.9833984-1.464901-.1220016-.0365982-.315403-.0829964-.5595016-.125-1.4296989-.3295975-2.4394989-.6464996-2.7080994-.9052963-.0565987-.065403-.0410004-.2768021.0449982-.5312004.4580002-1.3555031 2.4541016-3.1991997 3.5869026-3.5889015 3.4618988 1.5469017 12.2490005-1.3501015 14.6044998-2.1777.277298.4155006.4482002 1.2773018.2860985 2.3993988-.3437004 2.3721008-2.0391006 5.2616997-5.767601 6.2588005zm-11.4267006 2.0874023c-.149498-.955101-.0263977-1.6372032.3125-1.920002.3260994-.2719002.8925018-.2485008 1.3017006-.1800995 3.1738014.7616997 7.5391006 1.3515015 9.9336014 1.6416016.0723.6171989-.0459023 1.4785004-.5429993 2.2831993-.5712013.9217987-1.7773018 1.5336991-2.7773018 1.8143997v-.0268021c0 .0014001-7.6044998.3656999-8.2275009-3.612297zm-2.9667988-5.7041015.5654011.4653015c-.1748009.8412971.0937004 1.3886986.3745003 1.7118988.1933975.2226982.5805969.4384995 1.0844994.6474991-.6133003.6928024-.8394012 1.7285004-.6211014 3.1264.3690987 2.357502 2.2304993 3.6054993 4.2451019 4.2626991-1.0703011.1548004-2.4971008.2583008-4.2480011.2583008-4.0093002 0-7.7461014-.530201-9.3896999-1.3237-1.3647003-.7700005-2.9194012-2.4218979-3.4839001-3.1221008l-1.3071003 1.0049019c.1859989.2304993 1.2084999 1.6205978 2.6185989 2.7245979-2.8504982 1.4473-9.9974995 2.8853035-14.6303291 2.8853035-1.7529302 0-1.01367-.1353035-2.01367-.3111v-20.099102c2-.7836991 4.9677696-1.4491997 8.0438995-1.4491997h.2071009c.8217993 0 1.3519993-.1083984 1.6952991-.0303001l-.3223 2.1236 1.585.2215996.3779011-2.7001991.0468998-.172802c.0194988-.0727997 2.0184994-7.3002987 6.4520988-10.0775986l.4141008-.2588005-.0263996-.4882984c-.0029011-.0527-.273901-5.4102001.8442993-10.4151001l.0556011-.2490005-.0942001-.2372999c-.0220013-.0546999-2.1392002-5.4022999-2.9390011-9.0292797.4864006-1.8037106 1.9946995-2.8740207 4.0699005-2.8740207 1.3276005 0 2.8330002.4453101 4.3544006 1.2890601 3.8408985 2.1279297 3.0981998 7.8066401 2.6538982 11.2002392l-.1142998.8964005.0228997.1241002c.4179993 2.2929001.1977997 6.3584003.1958008 6.3994007l-.0370979.6639996.4389992.1231003c1.2695007 1.5995997 8.2226982 11.3568992-1.1191006 22.7094993zm20.4383984-15.6270008-.0184975-.0795994c-5.690403 1.3471985-12.0606003 2.6963005-12.8642998 2.6211014-.7138023-.2007027-1.9326019-3.9219017-2.1142006-6.6240005-.0009995-.0244007-.0030022-.0517998.0615005-.1191998.6591988-.6826 3.544899-.9248009 5.2977982-.8623009l.0517998-1.5995999c-.1338005-.0039005-.3544998-.0097008-.6357002-.0097008-1.4902992 0-4.6933975.1473999-5.8642998 1.3603001-.0615005.0635014-.1093979.1328011-.1601982.2012005-.1914024-.3799-.3818016-.7392998-.5664024-1.0576.1055031.0527.2100029.1054001.302803.1592007l.3505974.2049999.3759003-.1513004c1.2539024-.5039005 6.285202-1.1534004 9.9112015-1.1534004 1.7070007 0 2.4296989.1494999 2.7089996.2383003 1.7929.5713005 3.8700981 3.8857994 3.1629982 6.8715992zm-14.0760994 3.6011028c-.0078011.0062981-.0165977.0106964-.0243988.0170975 0-.016098-.0019989-.0307999-.0019989-.0468979.0087967.0087967.0175972.0209999.0263977.0298004zm13.7304001 5.2528992c-3.1455002 1.1254997-11.0995979 3.5191002-13.6963005 2.3061981-.3260994-.152401-.4637985-.3227997-.5321999-.4589996-.1161995-1.9453011.4629021-5.7261009 2.0078011-6.141098 2.2421989-.6026001 10.6953011-2.5533028 10.7803001-2.5733032l-.0018997-.0087967c.7196999-.1669998 1.4334984-.3339005 2.1278992-.4985008 1.5028991 2.3373984 1.2430991 5.522499-.6856003 7.3745002z" fill="#72402d"/></svg>